<svg xmlns="http://www.w3.org/2000/svg" width="24" height="24" viewBox="0 0 24 24">
    <path fill="#000" fill-rule="evenodd" d="M12 16.5c-.617 0-1.2-.117-1.746-.352a4.536 4.536 0 0 1-2.402-2.402A4.386 4.386 0 0 1 7.5 12V4.5c0-.625.117-1.209.352-1.752A4.536 4.536 0 0 1 10.254.352 4.386 4.386 0 0 1 12 0c.625 0 1.209.117 1.752.352a4.554 4.554 0 0 1 2.396 2.396c.235.543.352 1.127.352 1.752V12c0 .617-.117 1.2-.352 1.746a4.536 4.536 0 0 1-2.396 2.402A4.373 4.373 0 0 1 12 16.5zm-3-12V12c0 .414.078.803.234 1.166a3.03 3.03 0 0 0 1.6 1.6A2.92 2.92 0 0 0 12 15a2.92 2.92 0 0 0 1.166-.234 3.03 3.03 0 0 0 1.6-1.6A2.92 2.92 0 0 0 15 12V4.5a2.92 2.92 0 0 0-.234-1.166 3.03 3.03 0 0 0-1.6-1.6A2.92 2.92 0 0 0 12 1.5a2.92 2.92 0 0 0-1.166.234 3.03 3.03 0 0 0-1.6 1.6A2.92 2.92 0 0 0 9 4.5zM21 12c0 1.18-.213 2.291-.639 3.334a9.15 9.15 0 0 1-1.752 2.771 9.054 9.054 0 0 1-2.619 1.963 8.724 8.724 0 0 1-3.24.897v2.285a.72.72 0 0 1-.223.527A.72.72 0 0 1 12 24a.72.72 0 0 1-.527-.223.72.72 0 0 1-.223-.527v-2.285a8.724 8.724 0 0 1-3.24-.897 9.054 9.054 0 0 1-2.62-1.963 9.15 9.15 0 0 1-1.751-2.771A8.735 8.735 0 0 1 3 12a.72.72 0 0 1 .223-.527.72.72 0 0 1 .527-.223.72.72 0 0 1 .527.223A.72.72 0 0 1 4.5 12c0 1.031.197 2.002.592 2.912.394.91.931 1.705 1.611 2.385a7.626 7.626 0 0 0 2.385 1.611c.91.395 1.88.592 2.912.592a7.243 7.243 0 0 0 2.912-.592 7.626 7.626 0 0 0 2.385-1.611 7.626 7.626 0 0 0 1.611-2.385c.395-.91.592-1.88.592-2.912a.72.72 0 0 1 .223-.527.72.72 0 0 1 .527-.223.72.72 0 0 1 .527.223A.72.72 0 0 1 21 12z"/>
</svg>
