<svg xmlns="http://www.w3.org/2000/svg" width="24" height="24" viewBox="0 0 24 24">
    <path fill="#FFF" fill-rule="evenodd" d="M17.33 22.36c-.202 0-.415-.03-.64-.09a16.906 16.906 0 0 1-5.15-2.499 16.966 16.966 0 0 1-4.014-4.093 17.072 17.072 0 0 1-2.47-5.172 16.835 16.835 0 0 1-.585-5.7c.03-.411.157-.784.382-1.117.225-.333.524-.586.898-.758l1.202-.539c.345-.15.693-.225 1.045-.225a2.532 2.532 0 0 1 2.268 1.393l.483.966c.187.367.344.767.472 1.202.127.434.2.872.219 1.314a3.72 3.72 0 0 1-.169 1.285 2.727 2.727 0 0 1-.69 1.118l-.809.82a.71.71 0 0 0-.213.454.722.722 0 0 0 .134.489l2.774 3.964c.15.21.352.315.607.315a.669.669 0 0 0 .303-.068l1.022-.471a3.164 3.164 0 0 1 1.168-.225c.352 0 .694.049 1.027.146.334.097.652.228.955.393a6.305 6.305 0 0 1 1.567 1.202l.73.786a2.53 2.53 0 0 1-.034 3.515l-.92.943a2.21 2.21 0 0 1-1.562.652zm-8.636-7.502a15.75 15.75 0 0 0 3.683 3.74 15.506 15.506 0 0 0 4.717 2.29.896.896 0 0 0 .236.034.677.677 0 0 0 .528-.224l.92-.944c.21-.217.317-.471.32-.763a1.063 1.063 0 0 0-.297-.764l-.74-.786a5.705 5.705 0 0 0-.54-.494 3.929 3.929 0 0 0-.618-.41 3.597 3.597 0 0 0-.662-.275 2.335 2.335 0 0 0-.674-.101c-.202 0-.4.033-.595.1l-.989.461a2.147 2.147 0 0 1-1.898-.04 2.14 2.14 0 0 1-.786-.69l-2.785-3.964a2.174 2.174 0 0 1-.382-1.438c.023-.247.085-.484.186-.713.1-.228.245-.436.432-.623l.786-.797c.195-.195.326-.43.393-.702.068-.274.088-.56.062-.86a4.13 4.13 0 0 0-.185-.904 5.416 5.416 0 0 0-.337-.825l-.483-.955a1.136 1.136 0 0 0-.421-.449 1.09 1.09 0 0 0-1.028-.056l-1.202.54a.73.73 0 0 0-.426.65 15.38 15.38 0 0 0 .528 5.217 15.648 15.648 0 0 0 2.257 4.745z"/>
</svg>
