<svg xmlns="http://www.w3.org/2000/svg" width="24" height="24" viewBox="0 0 24 24">
    <path fill="#000" fill-rule="evenodd" d="M21.25 4.496a2.767 2.767 0 0 1 1.94.803 2.767 2.767 0 0 1 .802 1.94v12.503a2.767 2.767 0 0 1-.803 1.94 2.767 2.767 0 0 1-1.939.802H3.742a2.767 2.767 0 0 1-1.94-.803A2.767 2.767 0 0 1 1 19.743V7.238a2.767 2.767 0 0 1 .803-1.94 2.767 2.767 0 0 1 1.94-.802h3.773c.03-.351.123-.678.275-.978a2.763 2.763 0 0 1 1.441-1.325A2.66 2.66 0 0 1 10.246 2h4.5c.36 0 .697.064 1.014.193A2.787 2.787 0 0 1 17.2 3.518c.153.3.244.627.276.978h3.773zm1.254 15.246V7.238c0-.172-.033-.334-.1-.486a1.282 1.282 0 0 0-.668-.668 1.204 1.204 0 0 0-.486-.1H16V4.742c0-.172-.033-.334-.1-.486a1.282 1.282 0 0 0-.668-.668 1.204 1.204 0 0 0-.486-.1h-4.5c-.172 0-.334.033-.486.1a1.282 1.282 0 0 0-.668.668c-.067.152-.1.314-.1.486v1.242h-5.25c-.172 0-.334.034-.486.1a1.282 1.282 0 0 0-.668.668c-.067.152-.1.314-.1.486v12.504c0 .172.033.334.1.487a1.282 1.282 0 0 0 .668.667c.152.067.314.1.486.1H21.25c.172 0 .334-.033.486-.1a1.282 1.282 0 0 0 .668-.667c.067-.153.1-.315.1-.487zM5.5 7.988c.273 0 .508.1.703.3.195.198.293.435.293.708a.959.959 0 0 1-.293.703.959.959 0 0 1-.703.293.978.978 0 0 1-.709-.293.95.95 0 0 1-.299-.703c0-.273.1-.51.299-.709.2-.2.436-.299.709-.299zm6.996 0c.758 0 1.47.145 2.139.434.668.289 1.25.683 1.746 1.183s.889 1.084 1.178 1.752c.289.668.433 1.381.433 2.14 0 .757-.144 1.468-.433 2.132a5.663 5.663 0 0 1-1.178 1.746c-.496.5-1.078.895-1.746 1.184-.668.289-1.381.433-2.139.433-.758 0-1.47-.144-2.139-.433a5.523 5.523 0 0 1-1.746-1.184 5.663 5.663 0 0 1-1.177-1.746A5.285 5.285 0 0 1 7 13.496c0-.758.145-1.47.434-2.139A5.644 5.644 0 0 1 8.61 9.605a5.523 5.523 0 0 1 1.746-1.183 5.327 5.327 0 0 1 2.14-.434zm0 9.504a3.86 3.86 0 0 0 1.559-.316c.484-.211.906-.496 1.265-.856.36-.36.645-.783.856-1.271.21-.488.316-1.006.316-1.553a3.86 3.86 0 0 0-.316-1.559 4.14 4.14 0 0 0-.856-1.271 4.017 4.017 0 0 0-1.265-.861 3.86 3.86 0 0 0-1.559-.317 3.999 3.999 0 0 0-2.824 1.178 4.14 4.14 0 0 0-.856 1.271 3.86 3.86 0 0 0-.316 1.56c0 .546.105 1.064.316 1.552.211.488.496.912.856 1.271.36.36.783.645 1.271.856.489.21 1.006.316 1.553.316z"/>
</svg>
