<svg xmlns="http://www.w3.org/2000/svg" width="24" height="24" viewBox="0 0 24 24">
    <path fill="#FFF" fill-rule="evenodd" d="M22.563 7.156v9.58a.685.685 0 0 1-.214.51.7.7 0 0 1-.505.209.704.704 0 0 1-.517-.214l-3.234-3.313c-.27-.27-.47-.578-.601-.926a2.946 2.946 0 0 1 0-2.117c.131-.345.331-.652.6-.921l3.235-3.313a.755.755 0 0 1 .517-.213.69.69 0 0 1 .505.213.69.69 0 0 1 .213.505zm-1.438 7.817V8.919l-1.999 2.044a1.266 1.266 0 0 0-.298.46 1.496 1.496 0 0 0-.095.523c0 .176.032.35.095.522.064.172.163.326.298.46l1.999 2.045zM14.555 5c.315 0 .608.06.882.18.273.12.51.28.713.483.202.202.363.44.483.713.12.273.18.567.18.881v9.86c0 .315-.06.609-.18.882-.12.274-.28.511-.483.713-.202.203-.44.364-.713.483-.274.12-.567.18-.882.18H3.257c-.314 0-.608-.06-.881-.18a2.308 2.308 0 0 1-.713-.483A2.308 2.308 0 0 1 1.18 18a2.171 2.171 0 0 1-.18-.881v-9.86c0-.315.06-.609.18-.882.12-.274.28-.511.483-.713.202-.203.44-.364.713-.483.273-.12.567-.18.881-.18h11.298zm.82 12.118v-9.86a.789.789 0 0 0-.241-.579.789.789 0 0 0-.579-.242H3.257a.789.789 0 0 0-.578.242.789.789 0 0 0-.241.578v9.86c0 .225.08.418.241.579a.789.789 0 0 0 .578.241h11.298c.225 0 .418-.08.579-.241a.789.789 0 0 0 .241-.578z"/>
</svg>
